<svg width="89" height="103" viewBox="0 0 89 103" fill="none" xmlns="http://www.w3.org/2000/svg">
<path d="M88.8494 65.553C87.8613 62.859 81.9858 58.0029 78.4386 52.543C77.2347 50.6907 79.7977 51.2007 79.8128 47.9842C79.8431 42.2708 78.3515 38.0593 79.3699 37.6776C79.9415 37.4648 81.0204 38.5881 82.1145 38.4786C83.8295 38.3097 83.6175 34.2233 83.6629 30.9035C83.8219 20.2684 72.2186 12.2084 67.5167 9.84605C64.4313 8.29411 61.2967 7.64017 61.2967 7.64017C58.0864 6.97372 55.5008 7.102 54.4824 7.15206C35.9701 8.03129 26.9828 7.26158 20.5584 6.90488C5.00278 6.04756 5.10121 0.25284 3.12884 0.334192C-0.717477 0.493766 -0.198831 6.67021 0.459888 9.80224C1.98176 17.0331 11.6165 21.5575 16.5569 21.7202C19.805 21.8297 24.7795 21.5356 28.9287 20.6188C32.0254 19.9336 35.8149 19.6802 37.5829 21.5826C38.4839 22.5463 38.3362 22.8842 38.3362 23.8009C38.1469 40.7721 37.9577 57.7432 37.7684 74.7144C37.7532 76.0254 36.5115 77.4491 35.0048 77.8715C29.8335 79.3233 25.0293 81.2851 20.4789 83.6005C19.3129 83.9384 19.3129 83.347 20.0625 82.6524C20.5243 82.2269 24.6508 78.9447 26.9298 73.757C27.9936 71.3321 27.8989 67.9435 27.668 61.2664C27.4598 55.2683 27.032 51.62 26.9298 44.1263C26.8427 38.125 27.0661 36.717 28.1147 35.065C29.8221 32.371 31.6885 31.3478 33.6192 27.9029C34.7057 25.9661 34.63 24.9555 33.3731 24.1076C31.5484 22.881 26.3771 25.0431 23.1743 27.6182C15.0501 34.1545 15.3454 45.3653 16.0004 50.3371C16.0685 50.8691 15.6786 51.3697 15.0615 51.5293C11.59 52.421 7.93294 53.2345 2.93576 57.0862C0.00181331 59.3515 -0.520619 64.9929 1.74325 66.185C3.17426 66.9422 4.99142 67.033 6.48679 66.2883C7.58465 65.7407 7.6793 65.4935 8.95509 64.9397C10.0908 64.4454 11.4272 64.6331 12.4115 64.9209C15.1713 65.7251 16.0155 68.9009 15.5953 71.7983C15.1978 74.5329 13.7743 75.8439 11.0789 79.0198C8.14873 82.4709 3.01148 88.6474 2.04233 95.9158C1.77354 97.9183 1.53125 101.585 3.6702 102.527C5.92271 103.519 10.1817 102.177 18.0409 97.3864C22.5573 94.6298 25.3473 93.0279 29.4473 92.6117C35.213 92.0235 36.6819 94.0354 47.0737 96.4071C60.1799 99.3983 67.0321 98.2969 70.0342 97.6305C72.0823 97.1768 77.9994 96.0379 78.6657 92.4584C79.1011 90.118 77.4089 87.9872 78.6657 86.3351C79.4759 85.2713 79.7333 85.603 81.1832 84.439C82.4439 83.4284 82.8225 81.648 81.5921 80.6562C80.6267 79.8802 79.12 80.0586 79.0708 79.7238C78.9951 79.1919 83.0572 78.8258 84.0112 77.1831C85.0333 75.4247 80.6987 72.0861 82.6142 70.6249C84.9728 68.8289 89.9245 68.4816 88.8494 65.553ZM64.4238 80.4747C64.4086 81.6074 64.1398 82.7306 63.572 83.7601C63.2994 84.2513 62.9587 84.7394 62.5233 85.1712C61.7662 85.919 60.4109 86.0035 59.5137 85.3714C56.8712 83.5097 53.8578 80.8095 48.5918 79.2044C48.2094 79.0886 47.9634 78.7851 47.9634 78.4503C47.9141 60.2276 47.8649 42.0018 47.8157 23.779C47.8157 23.438 48.2359 23.2033 48.6183 23.3347C51.2191 24.2452 54.5619 25.7878 57.4429 28.4536C63.3335 33.901 63.7196 40.722 63.9619 46.8203C64.4578 59.2576 64.5525 70.4779 64.4238 80.4747Z" fill="white"/>
</svg>
